<?xml version="1.0" encoding="utf-8"?>
<!-- Generator: Adobe Illustrator 17.0.2, SVG Export Plug-In . SVG Version: 6.00 Build 0)  -->
<!DOCTYPE svg PUBLIC "-//W3C//DTD SVG 1.1//EN" "http://www.w3.org/Graphics/SVG/1.1/DTD/svg11.dtd">
<svg version="1.1" id="Layer_1" xmlns="http://www.w3.org/2000/svg" xmlns:xlink="http://www.w3.org/1999/xlink" x="0px" y="0px"
	 width="100px" height="100px" viewBox="0 0 100 100" enable-background="new 0 0 100 100" xml:space="preserve">
<g>
	<path fill="#86D3E3" d="M32.76,17.739c-7.181,1.182-14.016,3.381-20.353,6.457c-0.376,0.172-0.636,0.553-0.636,0.991
		c0,0.059,0.005,0.118,0.014,0.172l1.101,8.292c0.072,0.536,0.531,0.954,1.085,0.954c0.187,0,0.364-0.048,0.517-0.131
		c5.425-2.911,11.328-5.067,17.546-6.333L32.76,17.739z"/>
	<path fill="#86D3E3" d="M69.113,49.204c-1.192,0-2.265,0.512-3.007,1.325l-7.52,8.695c-0.746,0.856-1.842,1.4-3.073,1.4
		c-2.245,0-4.069-1.825-4.069-4.071l-1.711-43.914c0-2.254-1.827-4.08-4.08-4.08c-2.117,0-3.856,1.608-4.062,3.673L39.221,43.96
		L21.31,51.886c-2.867,1.245-4.876,4.104-4.876,7.434c0,0.365,0.024,0.731,0.072,1.088l3.208,24.026
		c0.532,3.956,3.921,7.009,8.026,7.009h19.676c3.08,0,5.753-1.714,7.126-4.239l18.11-31.9c0.339-0.594,0.536-1.287,0.536-2.025
		C73.187,51.026,71.365,49.204,69.113,49.204z"/>
	<path fill="#86D3E3" d="M87.911,31.371v-0.003L73.096,16.225v0.004c-0.2-0.197-0.473-0.321-0.775-0.321
		c-0.473,0-0.88,0.303-1.033,0.724l-1.455,4.407c-3.746-1.381-7.59-2.406-11.551-3.117l0.394,10.374
		c2.685,0.581,5.307,1.325,7.857,2.226l-1.422,4.163c-0.036,0.104-0.054,0.219-0.054,0.337c0,0.604,0.493,1.093,1.096,1.093
		c0.045,0,0.093-0.002,0.139-0.008l20.979-2.93c0.522,0,0.958-0.468,0.958-1.034C88.227,31.842,88.103,31.57,87.911,31.371z"/>
</g>
</svg>
